<?xml version="1.0" standalone="no"?><!DOCTYPE svg PUBLIC "-//W3C//DTD SVG 1.1//EN" "http://www.w3.org/Graphics/SVG/1.1/DTD/svg11.dtd"><svg t="1487481865068" class="icon" style="" viewBox="0 0 1024 1024" version="1.1" xmlns="http://www.w3.org/2000/svg" p-id="1010" xmlns:xlink="http://www.w3.org/1999/xlink" width="32" height="32"><defs><style type="text/css"></style></defs><path d="M869.2736 178.8928H751.0016v-71.7824C751.0016 93.184 740.352 81.92 727.2448 81.92c-13.1072 0-23.7568 11.264-23.7568 25.1904v71.7824H321.7408v-71.7824C321.7408 93.184 311.0912 81.92 297.984 81.92c-13.1072 0-23.7568 11.264-23.7568 25.1904v71.7824H154.7264c-39.424 0-71.4752 32.5632-71.4752 72.704V869.376c0 40.1408 31.9488 72.704 71.4752 72.704h714.4448c39.424 0 71.4752-32.5632 71.4752-72.704V251.5968c0.1024-40.1408-31.9488-72.704-71.3728-72.704z m-738.4064 72.704c0-13.7216 10.752-24.8832 23.8592-24.8832h714.4448c13.2096 0 23.8592 11.1616 23.8592 24.8832v118.9888H130.8672V251.5968zM893.1328 869.376c0 13.7216-10.752 24.8832-23.8592 24.8832H154.7264c-13.2096 0-23.8592-11.1616-23.8592-24.8832V420.2496h762.2656V869.376z" fill="#E15A53" p-id="1011"></path><path d="M252.0064 582.0416h171.1104c12.8 0 23.3472-10.5472 23.3472-23.3472s-10.5472-23.3472-23.3472-23.3472H252.0064c-12.8 0-23.3472 10.5472-23.3472 23.3472 0.1024 12.8 10.5472 23.3472 23.3472 23.3472zM606.4128 582.0416h171.1104c12.8 0 23.3472-10.5472 23.3472-23.3472s-10.5472-23.3472-23.3472-23.3472H606.4128c-12.8 0-23.3472 10.5472-23.3472 23.3472 0.1024 12.8 10.5472 23.3472 23.3472 23.3472zM252.0064 727.2448h171.1104c12.8 0 23.3472-10.5472 23.3472-23.3472s-10.5472-23.3472-23.3472-23.3472H252.0064c-12.8 0-23.3472 10.5472-23.3472 23.3472s10.5472 23.3472 23.3472 23.3472zM606.4128 727.2448h171.1104c12.8 0 23.3472-10.5472 23.3472-23.3472s-10.5472-23.3472-23.3472-23.3472H606.4128c-12.8 0-23.3472 10.5472-23.3472 23.3472s10.5472 23.3472 23.3472 23.3472z" fill="#E15A53" p-id="1012"></path></svg>